<svg width="802" height="678" viewBox="0 0 802 678" fill="none" xmlns="http://www.w3.org/2000/svg">
<path d="M586.587 479.889C586.587 479.889 464.458 489.129 457.707 477.469C450.956 465.809 526.443 462.334 501.895 457.321C477.346 452.307 63.8291 443.101 130.107 496.494C159.482 520.159 145.451 519.919 98.8088 517.464C52.1666 515.009 -74.9956 530.912 61.2489 562.493C197.493 594.074 292.619 608.189 256.41 618.623C220.201 629.056 228.179 687.988 341.103 672.944C454.026 657.9 786.045 607.604 773.157 595.623C760.269 583.641 659.006 582.607 714.24 565.633C769.474 548.66 674.963 524.725 638.14 526.566C601.317 528.407 586.587 479.889 586.587 479.889Z" fill="#EDEDED"/>
<path d="M363.749 616.715L420.993 677.852L564.885 655.301L564.758 650.393L498.801 600.531L363.622 611.807L363.749 616.715Z" fill="#176BFB"/>
<path d="M363.622 611.806L420.866 672.944L564.758 650.393L498.674 595.623L363.622 611.806Z" fill="#176BFB"/>
<path d="M363.621 611.807L362.637 573.769L497.689 557.586L554.586 613.795L553.597 652.142L420.866 672.944L363.621 611.807Z" fill="#EDCCD4"/>
<path d="M572.971 423.812L582.66 489.137L662.074 537.613L669.194 536.392L646.737 459.207L572.971 423.812Z" fill="#084BBE"/>
<path d="M575.54 496.494L457.707 500.176V506.313L547.923 568.912L670.426 541.908L669.194 536.392L575.54 496.494Z" fill="#084BBE"/>
<path d="M777.451 0V526.566L473.05 380.502V130.107L777.451 0Z" fill="#176BFB"/>
<path d="M777.452 0H788.498C788.498 0 802 148.519 802 263.283C802 378.048 786.453 523.293 786.453 523.293L777.452 526.566V0Z" fill="#084BBE"/>
<path d="M777.451 413.643V526.566L473.05 380.502V337.542L777.451 413.643Z" fill="#176BFB"/>
<path d="M480.848 339.491V138.699L755.359 41.7319V408.119L480.848 339.491Z" fill="#9CC1FF"/>
<path d="M662.074 537.613L614.032 511.371C614.008 511.358 613.984 511.346 613.971 511.346H613.959V511.334L575.54 490.357L565.855 425.034L603.513 443.102C603.513 443.102 603.513 443.102 603.513 443.114L639.611 460.433L662.074 537.613Z" fill="#176BFB"/>
<path d="M575.54 490.357L457.707 500.176L547.923 562.775L662.074 537.613L575.54 490.357Z" fill="#176BFB"/>
<path d="M362.764 578.676L420.008 639.815L563.9 617.263L563.773 612.355L497.816 562.493L362.637 573.768L362.764 578.676Z" fill="#176BFB"/>
<path d="M362.637 573.769L419.881 634.907L563.773 612.356L497.689 557.586L362.637 573.769Z" fill="#176BFB"/>
<path d="M554.218 628.069L529.512 630.488L554.218 624.351V628.069Z" fill="#176BFB"/>
<path d="M554.071 633.764L524.807 637.136L544.548 637.546L513.965 643.273L553.892 640.72L554.071 633.764Z" fill="#176BFB"/>
<path d="M625.251 496.494C631.314 478.513 604.164 443.936 603.514 443.113L639.612 460.432L662.074 537.613L614.032 511.371C614.658 511.69 619.531 513.469 625.251 496.494Z" fill="#86A8E3"/>
<path d="M339.874 461.759C339.874 461.759 331.282 474.756 332.202 477.61C333.123 480.463 356.137 479.829 356.137 479.829L347.545 457.32L339.874 461.759Z" fill="#176BFB"/>
<path d="M377.311 463.978C377.311 463.978 369.946 477.73 371.787 479.89C373.628 482.049 391.119 481.535 392.04 479.89C392.96 478.245 384.982 461.125 384.982 461.125L377.311 463.978Z" fill="#176BFB"/>
<path d="M392.114 462.397C380.834 470.633 371.493 462.397 371.493 462.397C371.493 462.397 367.074 439.309 363.65 421.155C361.735 411.004 360.152 402.412 359.82 400.252C358.9 394.237 351.216 354.788 351.216 354.788L349.498 331.957L346.933 297.86L380.073 295.319C380.073 295.319 384.063 300.081 386.345 305.629C388.641 311.164 386.824 329.564 386.824 329.564C386.824 329.564 386.824 384.724 386.517 388.848C386.21 392.961 392.114 462.397 392.114 462.397Z" fill="#C84040"/>
<path d="M363.65 421.154C361.735 411.003 360.152 402.412 359.82 400.251C358.9 394.236 351.216 354.787 351.216 354.787L349.498 331.957C354.052 329.502 357.979 327.415 357.979 327.415C357.979 327.415 361.048 337.848 357.979 346.747C354.91 355.647 363.65 421.154 363.65 421.154Z" fill="#FF5151"/>
<path d="M334.044 463.661C334.044 463.661 349.387 466.514 352.762 461.124C352.762 461.124 348.492 399.909 348.492 391.983C348.492 384.058 354.603 346.679 354.603 345.728C354.603 344.777 357.978 339.387 357.978 336.535C357.978 333.681 356.444 307.686 356.444 307.686C356.444 307.686 323.304 306.573 322.69 311.25C322.076 315.928 319.863 382.1 320.849 389.708C321.835 397.317 334.044 463.661 334.044 463.661Z" fill="#C84040"/>
<path d="M390.045 302.454C390.045 302.454 396.694 281.019 397.768 276.58C398.842 272.141 387.719 254.545 386.351 253.668C384.983 252.79 381.147 218.443 384.215 217.967C387.284 217.491 418.43 271.226 417.816 276.616C417.202 282.005 395.262 315.055 395.262 315.055L390.045 302.454Z" fill="#EDCCD4"/>
<path d="M388.149 305.15C386.639 306.132 357.009 309.581 337.137 310.808C327.269 311.422 319.818 311.483 319.413 310.427C318.529 308.157 314.982 260.901 314 233.553C313.595 222.826 313.595 215.166 314.307 214.479C316.087 212.749 339.408 213.375 357.819 214.639C376.23 215.904 383.448 216.861 384.208 217.965C384.982 219.071 390.407 303.665 388.149 305.15Z" fill="#176BFB"/>
<path d="M342.697 308.427C342.697 308.427 340.414 309.409 337.137 310.809C327.269 311.423 319.818 311.484 319.413 310.428C318.529 308.158 314.982 260.902 314 233.554C315.976 227.675 317.265 223.809 317.265 223.809C317.265 223.809 316.762 256.532 320.444 259.196C324.126 261.847 324.74 273.102 321.463 275.962C318.185 278.835 323.475 305.617 342.697 308.427Z" fill="#0C44A5"/>
<path d="M220.814 176.014C220.814 176.014 238.611 172.844 241.68 173.689C244.749 174.535 256.409 187.004 256.818 188.695C257.228 190.386 248.635 193.929 248.227 194.06C247.818 194.191 245.362 189.118 243.726 189.118C242.09 189.118 236.566 189.541 236.157 188.907C235.747 188.273 242.703 186.37 243.112 184.68C243.522 182.989 238.407 180.664 236.975 179.608C235.543 178.55 220.814 179.395 220.814 176.014Z" fill="#FCDFD0"/>
<path d="M244.135 194.062C244.135 194.062 257.227 184.469 258.659 185.948C260.091 187.427 262.137 194.06 262.137 194.06C262.137 194.06 249.454 202.866 247.817 200.853C246.181 198.84 244.135 194.062 244.135 194.062Z" fill="#176BFB"/>
<path d="M249.045 201.152C249.045 201.152 271.139 236.46 277.276 237.306C283.413 238.151 314.229 239.423 314.229 239.423C314.229 239.423 321.054 218.918 314.304 214.48C314.304 214.48 283.004 216.802 281.982 216.381C280.959 215.959 262.138 194.06 262.138 194.06C262.138 194.06 252.318 198.18 249.045 201.152Z" fill="#E2B5C2"/>
<path d="M319.418 310.433C319.418 310.433 317.929 318.124 321.384 320.671L388.154 305.149C388.153 305.149 326.884 309.376 319.418 310.433Z" fill="#EDCCD4"/>
<path d="M379.152 307.569C379.152 307.569 379.306 322.902 386.057 324.963L392.114 317.354L388.154 305.149C388.153 305.149 384.062 305.393 379.152 307.569Z" fill="#FCDFD0"/>
<path d="M386.351 305.623C386.351 305.623 391.421 314.067 389.889 320.149C389.889 320.149 393.882 319.415 395.262 315.056C395.262 315.056 393.268 302.454 390.046 302.454C386.824 302.454 386.351 305.623 386.351 305.623Z" fill="#176BFB"/>
<path d="M363.551 203.998C363.551 203.998 360.605 204.882 360.605 208.454V211.375C360.605 213.867 360.605 215.929 360.605 215.929L341.949 215.033L347.828 187.22H359.747L361.257 193.872L363.551 203.998Z" fill="#FCDFD0"/>
<path d="M363.551 203.998C363.551 203.998 360.605 204.882 360.605 208.454V211.375C358.285 211.793 356.543 212.038 356.543 212.038C356.543 212.038 359.059 205.987 356.543 203.998C354.026 202.01 351.216 194.658 351.216 194.658L361.256 193.873L363.551 203.998Z" fill="#E8BAA6"/>
<path d="M338.662 214.452C338.662 214.452 338.164 204.592 339.373 204.592C340.581 204.592 363.201 205.484 363.546 207.267C363.891 209.051 363.546 215.83 363.546 215.83C363.546 215.83 353.339 221.053 338.662 214.452Z" fill="#E2B5C2"/>
<path d="M376.668 171.884C376.668 171.884 376.668 189.009 373.042 194.538C369.417 200.068 365.963 204.171 363.545 203.993C361.128 203.814 351.459 196.144 349.905 192.755C348.351 189.366 342.826 184.549 342.826 184.549C342.826 184.549 343.689 167.602 344.897 167.424C346.106 167.245 374.078 159.04 374.078 159.04C374.078 159.04 376.841 166.502 376.668 171.884Z" fill="#FCDFD0"/>
<path d="M358.409 176.053C358.409 176.053 370.774 176.45 374.401 171.358C378.028 166.265 375.011 163.81 373.988 163.964C372.965 164.117 353.326 165.345 352.764 165.958C352.202 166.571 358.409 176.053 358.409 176.053Z" fill="#E8BAA6"/>
<path d="M351.286 183.479C351.286 183.479 351.459 178.841 348.524 179.019C345.589 179.198 346.626 190.436 349.907 190.436L345.901 196.354C345.901 196.354 331.776 173.133 331.948 169.743C332.121 166.353 340.236 151.013 342.826 150.656C345.417 150.299 348.006 144.234 349.387 144.413C350.768 144.592 350.078 147.981 350.078 147.981C350.078 147.981 373.56 147.446 378.568 153.51C383.575 159.576 376.311 180.093 376.358 179.394C376.406 178.694 373.733 167.603 372.697 167.425C372.697 167.425 363.592 176.714 356.138 176.166C351.286 175.809 351.286 183.479 351.286 183.479Z" fill="#090B33"/>
<path d="M347.801 181.519C347.801 181.519 350.716 181.966 350.308 184.727C350.308 184.727 349.796 182.76 347.801 181.519Z" fill="#E8BAA6"/>
<path d="M204.857 290.016V475.014H186.409V289.771L196.474 284.149L204.857 290.016Z" fill="#88C8F9"/>
<path fill-rule="evenodd" clip-rule="evenodd" d="M136.94 231.232C136.94 198.354 163.592 171.701 196.47 171.701C229.348 171.701 256 198.354 256 231.232C256 264.109 229.348 290.762 196.47 290.762C163.592 290.762 136.94 264.109 136.94 231.232ZM148.805 231.231C148.805 257.556 170.145 278.896 196.47 278.896C222.795 278.896 244.135 257.555 244.135 231.231C244.135 204.907 222.795 183.566 196.47 183.566C170.145 183.566 148.805 204.907 148.805 231.231Z" fill="#88C8F9"/>
<path opacity="0.42" d="M196.47 278.895C222.794 278.895 244.135 257.554 244.135 231.23C244.135 204.905 222.794 183.565 196.47 183.565C170.145 183.565 148.805 204.905 148.805 231.23C148.805 257.554 170.145 278.895 196.47 278.895Z" fill="#176BFB"/>
<rect opacity="0.42" x="186.409" y="432.054" width="18.4479" height="11.0465" fill="#176BFB"/>
<path d="M225.723 249.404C224.072 248.014 223.705 245.611 224.878 243.801C229.775 236.246 230.062 227.731 225.718 218.439C223.438 213.559 220.394 209.567 218.25 207.083C216.82 205.427 216.88 202.964 218.369 201.362L218.406 201.322C220.145 199.452 223.108 199.502 224.797 201.415C233.94 211.768 243.619 230.785 232.059 248.525C230.664 250.664 227.676 251.049 225.723 249.404Z" fill="#F2DDE3"/>
<path d="M148.056 546.189C147.078 547.615 146.479 548.456 146.479 548.456C146.479 548.456 146.449 547.871 146.455 546.848C146.435 540.901 147.216 520.389 158.805 516.48C170.322 512.612 153.451 538.28 148.056 546.189Z" fill="#176BFB"/>
<path d="M146.656 546.494C146.551 547.519 146.472 548.22 146.48 548.457C146.48 548.457 146.087 547.845 145.457 546.793C141.452 540.194 127.702 516.311 138.651 516.762C149.713 517.221 147.391 539.525 146.656 546.494Z" fill="#629CFF"/>
<path d="M146.657 546.493C146.551 547.519 146.472 548.219 146.48 548.457C146.48 548.457 146.087 547.845 145.457 546.792L140.228 524.245L146.657 546.493Z" fill="#669EFF"/>
<path d="M157.327 522.748L148.057 546.187C147.078 547.614 146.48 548.455 146.48 548.455C146.48 548.455 146.45 547.87 146.456 546.847L157.327 522.748Z" fill="#CC485B"/>
<path d="M146.369 547.234C146.369 547.234 141.142 547.194 143.132 548.558C145.122 549.922 151.679 549.203 149.906 548.351C147.776 547.326 146.369 547.234 146.369 547.234Z" fill="#C1C1C1"/>
<path d="M299.039 628.75C298.06 630.177 297.462 631.018 297.462 631.018C297.462 631.018 297.432 630.433 297.438 629.41C297.418 623.462 298.199 602.951 309.788 599.042C321.304 595.173 304.433 620.841 299.039 628.75Z" fill="#176BFB"/>
<path d="M297.639 629.055C297.534 630.08 297.455 630.781 297.463 631.018C297.463 631.018 297.07 630.406 296.439 629.354C292.434 622.755 278.684 598.872 289.634 599.323C300.696 599.782 298.373 622.086 297.639 629.055Z" fill="#629CFF"/>
<path d="M297.639 629.055C297.534 630.08 297.455 630.781 297.463 631.018C297.463 631.018 297.07 630.406 296.44 629.354L291.21 606.807L297.639 629.055Z" fill="#669EFF"/>
<path d="M308.309 605.31L299.039 628.749C298.06 630.176 297.462 631.017 297.462 631.017C297.462 631.017 297.432 630.432 297.438 629.409L308.309 605.31Z" fill="#CC485B"/>
<path d="M297.351 629.796C297.351 629.796 292.124 629.757 294.114 631.121C296.104 632.485 302.661 631.766 300.888 630.913C298.758 629.888 297.351 629.796 297.351 629.796Z" fill="#C1C1C1"/>
<path d="M690.178 599.014C689.199 600.441 688.601 601.282 688.601 601.282C688.601 601.282 688.571 600.697 688.577 599.674C688.557 593.726 689.338 573.215 700.927 569.306C712.443 565.438 695.572 591.106 690.178 599.014Z" fill="#176BFB"/>
<path d="M688.779 599.319C688.673 600.345 688.595 601.045 688.602 601.283C688.602 601.283 688.209 600.671 687.579 599.618C683.574 593.02 669.824 569.137 680.774 569.587C691.835 570.046 689.513 592.351 688.779 599.319Z" fill="#629CFF"/>
<path d="M688.779 599.319C688.673 600.345 688.594 601.045 688.602 601.283C688.602 601.283 688.209 600.671 687.579 599.618L682.35 577.071L688.779 599.319Z" fill="#669EFF"/>
<path d="M699.449 575.575L690.179 599.015C689.2 600.441 688.602 601.282 688.602 601.282C688.602 601.282 688.572 600.697 688.578 599.674L699.449 575.575Z" fill="#CC485B"/>
<path d="M688.491 600.061C688.491 600.061 683.264 600.021 685.254 601.385C687.244 602.749 693.802 602.031 692.028 601.178C689.898 600.152 688.491 600.061 688.491 600.061Z" fill="#C1C1C1"/>
<path d="M626.143 301.816L553.275 295.025C551.417 294.852 550.012 293.115 550.107 291.108C550.201 289.099 551.764 287.549 553.63 287.616L626.696 290.205C628.631 290.274 630.146 292.049 630.048 294.134L629.85 298.335C629.751 300.422 628.075 301.996 626.143 301.816Z" fill="#084BBE"/>
<path d="M536.368 257.444L514.816 202.761C513.617 199.72 515.11 196.283 518.152 195.084H518.152C521.194 193.886 524.63 195.379 525.829 198.42L547.382 253.104C548.58 256.145 547.087 259.581 544.045 260.78H544.045C541.003 261.979 537.567 260.485 536.368 257.444Z" fill="#084BBE"/>
<path d="M514.934 256.13C512.027 254.634 510.884 251.065 512.38 248.158L539.29 195.887C540.786 192.981 544.355 191.837 547.261 193.334C550.167 194.829 551.31 198.399 549.815 201.305L522.905 253.577C521.409 256.483 517.84 257.626 514.934 256.13Z" fill="#084BBE"/>
<path d="M676.04 267.634L636.714 187.365C635.276 184.43 636.49 180.884 639.426 179.446C642.361 178.009 645.906 179.223 647.344 182.158L686.67 262.427C688.108 265.362 686.895 268.907 683.959 270.345C681.024 271.782 677.478 270.568 676.04 267.634Z" fill="#084BBE"/>
<path d="M637.638 264.939C634.728 263.344 633.575 259.522 635.063 256.403L672.942 177.002C674.43 173.884 677.996 172.647 680.906 174.242C683.816 175.837 684.969 179.659 683.481 182.778L645.602 262.178C644.114 265.298 640.548 266.533 637.638 264.939Z" fill="#084BBE"/>
</svg>
