<svg width="609" height="575" viewBox="0 0 609 575" fill="none" xmlns="http://www.w3.org/2000/svg">
<path opacity="0.5" d="M526.283 531.357C526.283 531.357 628.476 382.297 581.857 261.149C535.238 140 452.588 337.123 398.895 336.227C345.202 335.33 564.42 106.771 402.395 47.6848C265.018 -12.6466 202.818 26.4119 226.569 145.231C254.805 286.432 210.44 315.689 162.825 259.642C107.887 194.876 52.9734 270.851 103.179 344.397C153.385 417.943 -1.66608 363.142 33.3445 435.704C65.8268 502.96 44.5539 521.817 44.5539 521.817L85.2689 531.407L526.283 531.357Z" fill="#88C8F9"/>
<path d="M180.661 297.243L137.417 266.94C134.86 265.146 131.974 263.874 128.924 263.196C125.874 262.518 122.721 262.448 119.644 262.989C116.568 263.53 113.628 264.673 110.993 266.351C108.358 268.029 106.079 270.21 104.287 272.769L104.138 272.981C102.344 275.538 101.072 278.424 100.394 281.474C99.7158 284.524 99.6455 287.677 100.187 290.754C100.728 293.83 101.871 296.77 103.549 299.405C105.227 302.04 107.408 304.319 109.967 306.111L153.21 336.413C158.375 340.034 164.767 341.456 170.979 340.365C177.192 339.274 182.717 335.761 186.34 330.597L186.489 330.373C190.109 325.206 191.529 318.814 190.435 312.601C189.342 306.388 185.826 300.864 180.661 297.243Z" fill="#176BFB"/>
<path d="M390.089 16.9087L339.684 1.09103C333.666 -0.797312 327.144 -0.218029 321.552 2.7015C315.961 5.62102 311.758 10.6417 309.867 16.6596L309.78 16.9087C307.892 22.9272 308.471 29.4493 311.391 35.0408C314.31 40.6322 319.331 44.8353 325.349 46.7257L375.803 62.5433C378.783 63.48 381.919 63.8203 385.03 63.5448C388.142 63.2693 391.169 62.3833 393.938 60.9374C396.707 59.4916 399.164 57.5143 401.168 55.1185C403.173 52.7227 404.686 49.9554 405.62 46.9748L405.695 46.7257C406.629 43.7432 406.967 40.6058 406.688 37.4929C406.409 34.38 405.52 31.3525 404.07 28.5835C402.621 25.8145 400.64 23.3582 398.241 21.3549C395.842 19.3517 393.072 17.8409 390.089 16.9087Z" fill="#176BFB"/>
<path d="M267.571 294.266L248.552 280.927C247.881 280.451 247.121 280.113 246.318 279.932C245.515 279.751 244.684 279.732 243.874 279.874C243.063 280.017 242.288 280.318 241.595 280.762C240.902 281.206 240.303 281.783 239.834 282.459V282.521C239.359 283.194 239.021 283.954 238.841 284.757C238.662 285.561 238.643 286.392 238.787 287.203C238.93 288.014 239.233 288.788 239.678 289.481C240.123 290.174 240.701 290.772 241.378 291.24L260.347 304.579C261.019 305.054 261.779 305.392 262.583 305.571C263.387 305.751 264.218 305.77 265.029 305.626C265.839 305.482 266.614 305.179 267.307 304.735C268 304.29 268.597 303.712 269.066 303.034C269.551 302.363 269.898 301.602 270.086 300.796C270.274 299.989 270.299 299.153 270.16 298.336C270.021 297.52 269.72 296.739 269.276 296.04C268.831 295.342 268.251 294.738 267.571 294.266Z" fill="#176BFB"/>
<path d="M240.693 412.837L217.726 396.732C216.725 396.033 215.487 395.759 214.285 395.972C213.082 396.184 212.013 396.865 211.312 397.866C210.613 398.867 210.339 400.105 210.551 401.308C210.764 402.51 211.445 403.579 212.446 404.28L235.387 420.434C235.882 420.782 236.44 421.028 237.029 421.16C237.619 421.291 238.229 421.304 238.824 421.199C239.419 421.093 239.987 420.872 240.496 420.546C241.005 420.22 241.444 419.797 241.789 419.301C242.145 418.806 242.4 418.245 242.537 417.651C242.675 417.056 242.693 416.441 242.591 415.84C242.489 415.238 242.269 414.663 241.943 414.148C241.618 413.632 241.193 413.187 240.693 412.837Z" fill="#176BFB"/>
<path d="M315.368 379.518L294.213 364.695C291.535 362.818 288.221 362.082 285 362.649C281.78 363.216 278.916 365.039 277.039 367.717L276.961 367.829C275.082 370.51 274.346 373.827 274.913 377.051C275.48 380.275 277.305 383.142 279.986 385.02L301.13 399.837C303.808 401.713 307.122 402.449 310.343 401.882C313.564 401.316 316.428 399.493 318.304 396.815L318.383 396.702C320.259 394.024 320.995 390.71 320.429 387.49C319.862 384.269 318.039 381.405 315.361 379.529L315.368 379.518Z" fill="#176BFB"/>
<path d="M125.484 438.46L110.052 427.646C108.096 426.275 105.676 425.738 103.324 426.152C100.972 426.566 98.8802 427.897 97.5097 429.853L97.4525 429.934C96.7748 430.902 96.2943 431.993 96.0383 433.146C95.7823 434.298 95.7558 435.49 95.9605 436.653C96.1652 437.816 96.5969 438.928 97.2311 439.924C97.8652 440.92 98.6894 441.782 99.6565 442.459L115.099 453.28C117.055 454.651 119.475 455.188 121.827 454.774C124.179 454.361 126.271 453.029 127.641 451.073L127.698 450.992C129.067 449.039 129.604 446.622 129.19 444.273C128.777 441.924 127.448 439.836 125.495 438.467L125.484 438.46Z" fill="#176BFB"/>
<path d="M534.416 395.997L505.334 375.621C503.503 374.341 501.24 373.84 499.04 374.228C496.84 374.616 494.885 375.86 493.601 377.688V377.763C492.317 379.593 491.812 381.859 492.197 384.061C492.582 386.264 493.827 388.223 495.657 389.508L524.714 409.872C526.541 411.161 528.805 411.673 531.01 411.294C533.214 410.916 535.178 409.679 536.471 407.854V407.779C537.113 406.872 537.569 405.847 537.814 404.762C538.058 403.678 538.085 402.556 537.894 401.461C537.703 400.366 537.298 399.319 536.701 398.382C536.104 397.444 535.327 396.634 534.416 395.997Z" fill="#176BFB"/>
<path d="M523.992 274.569L543.525 288.256C546.088 290.052 546.71 293.586 544.913 296.149L544.878 296.2C543.082 298.763 539.548 299.385 536.985 297.589L517.452 283.902C514.889 282.106 514.267 278.572 516.063 276.009L516.099 275.958C517.895 273.395 521.429 272.773 523.992 274.569Z" fill="#176BFB"/>
<path d="M13.8906 537.385V537.223C13.9983 536.735 13.9201 536.225 13.6713 535.792C13.4225 535.359 13.0211 535.034 12.5455 534.881C7.46394 533.125 4.31281 529.127 4.22562 526.026C4.12598 522.489 7.9621 520.882 10.2413 520.247C20.7159 517.295 35.4624 521.019 54.1198 525.74C58.1178 526.748 62.2404 527.782 66.5747 528.816C82.6664 532.664 91.8581 532.453 96.3792 528.131C99.2065 525.428 100.029 521.306 98.8702 515.539C98.6274 514.43 98.7019 513.275 99.0852 512.207C99.4685 511.139 100.145 510.2 101.037 509.498C107.539 503.744 125.1 503.034 140.171 507.917C149.325 510.868 156.499 510.956 161.481 508.153C164.069 506.783 166.012 504.447 166.886 501.652L162.838 500.655C162.214 502.365 160.957 503.77 159.326 504.579C156.611 506.048 151.318 507.132 141.453 503.931C124.851 498.563 105.882 499.634 98.2848 506.422C96.8412 507.6 95.7498 509.153 95.1303 510.911C94.5107 512.669 94.3869 514.563 94.7725 516.386C95.5945 520.646 95.1586 523.523 93.4398 525.104C90.2016 528.206 81.4708 528.081 67.4964 524.743C63.2244 523.722 59.1142 522.676 55.1411 521.679C35.861 516.809 20.6411 512.961 9.05811 516.212C0.700897 518.566 -0.0587921 523.921 0.003479 526.175C0.152939 531.519 4.81105 536.7 11.2129 538.879C11.7085 539.038 12.2465 538.997 12.712 538.764C13.1775 538.531 13.5335 538.126 13.7038 537.634L13.8906 537.385Z" fill="url(#paint0_linear_536_11365)"/>
<path d="M172.279 510.719C167.017 510.719 162.751 506.453 162.751 501.191C162.751 495.928 167.017 491.663 172.279 491.663C177.541 491.663 181.807 495.928 181.807 501.191C181.807 506.453 177.541 510.719 172.279 510.719Z" fill="url(#paint1_linear_536_11365)"/>
<path d="M231.763 435.69L189.691 455.768C181.787 459.539 175.35 465.815 171.381 473.622C167.412 481.429 166.134 490.328 167.745 498.936C169.458 508.039 174.298 516.257 181.428 522.17C188.557 528.083 197.529 531.319 206.791 531.319H257.62L231.763 435.69Z" fill="url(#paint2_linear_536_11365)"/>
<path d="M231.764 435.691C231.764 435.691 248.241 434.009 263.249 459.666C278.258 485.323 271.582 524.643 257.62 531.356C257.62 531.356 233.009 516.734 228.015 481.699C223.02 446.663 231.764 435.691 231.764 435.691Z" fill="url(#paint3_linear_536_11365)"/>
<path d="M250.252 499.538C249.294 495.708 250.108 492.205 252.07 491.714C254.032 491.223 256.399 493.931 257.356 497.761C258.314 501.592 257.5 505.094 255.538 505.585C253.577 506.076 251.21 503.368 250.252 499.538Z" fill="#110F24"/>
<path d="M248.765 469.867C247.806 466.043 245.439 463.328 243.471 463.827C241.503 464.325 240.694 467.812 241.653 471.648C242.612 475.484 244.978 478.175 246.946 477.689C248.914 477.203 249.686 473.691 248.765 469.867Z" fill="#110F24"/>
<path d="M167.746 498.924C166.466 492.096 167 485.052 169.295 478.495C171.59 471.938 175.565 466.098 180.824 461.559C176.203 466.541 176.527 475.147 183.813 483.492C192.432 493.369 174.92 503.42 192.992 517.27C211.064 531.119 238.577 531.344 238.577 531.344H206.792C197.524 531.345 188.547 528.104 181.416 522.183C174.285 516.263 169.449 508.034 167.746 498.924Z" fill="url(#paint4_linear_536_11365)"/>
<path d="M184 459.056L183.776 459.205L184 459.056Z" fill="url(#paint5_linear_536_11365)"/>
<path d="M330.157 121.567L333.893 120.981L339 130.123L337.02 132.203C336.366 132.887 335.782 133.634 335.276 134.433L330.045 142.777L318.574 135.305L325.511 124.606C326.024 123.797 326.703 123.107 327.505 122.583C328.306 122.058 329.21 121.712 330.157 121.567Z" fill="url(#paint6_linear_536_11365)"/>
<path d="M332.909 300.668V539.602H354.717L370.822 383.792L394.735 539.602H417.552V300.668H332.909Z" fill="url(#paint7_linear_536_11365)"/>
<path d="M417.553 339.689V345.916C403.616 329.575 381.434 318.74 357.047 316.647L357.408 312.487C381.085 314.443 402.831 324.481 417.553 339.689Z" fill="#110F24"/>
<path d="M367.559 301.701C369.303 301.701 370.985 302.354 372.271 303.532C373.558 304.711 374.356 306.328 374.509 308.066C401.673 310.644 426.246 323.647 440.357 343.014C459.775 369.63 458.629 401.241 457.52 431.792C457.259 438.742 457.01 445.916 457.01 452.829C457.01 485.809 468.107 512.936 489.99 533.449C517.216 558.944 560.684 572.557 606.617 570.041C607.165 570.007 607.704 570.191 608.117 570.553C608.53 570.914 608.784 571.424 608.822 571.972C608.853 572.525 608.663 573.068 608.294 573.481C607.925 573.894 607.407 574.144 606.854 574.177C603.159 574.376 599.485 574.475 595.832 574.475C552.9 574.475 512.969 560.663 487.138 536.463C464.37 515.128 452.825 486.98 452.825 452.804C452.825 445.817 453.086 438.593 453.348 431.631C454.431 401.739 455.552 370.913 436.982 345.455C423.469 326.935 399.804 314.493 373.612 312.151C373.001 313.216 372.121 314.102 371.059 314.718C369.997 315.335 368.792 315.661 367.564 315.663C366.336 315.666 365.129 315.345 364.065 314.732C363.001 314.12 362.117 313.238 361.502 312.175C360.887 311.113 360.563 309.907 360.563 308.679C360.562 307.451 360.885 306.245 361.5 305.182C362.114 304.118 362.997 303.236 364.061 302.623C365.124 302.009 366.331 301.687 367.559 301.689V301.701Z" fill="#110F24"/>
<path d="M283.351 334.756L324.913 340.199C329.89 340.852 334.947 340.517 339.795 339.214C344.643 337.912 349.187 335.667 353.167 332.607C357.147 329.548 360.485 325.734 362.991 321.385C365.497 317.035 367.121 312.234 367.77 307.256C367.77 307.181 367.77 307.107 367.77 307.019C368.988 297.358 366.472 287.595 360.737 279.725C355.001 271.856 346.478 266.472 336.907 264.673L298.297 257.412L283.351 334.756Z" fill="url(#paint8_linear_536_11365)"/>
<path d="M271.183 219.014L318.512 135.267L329.983 142.74L309.121 202.885L335.948 190.006C337.975 189.037 340.084 188.249 342.251 187.652L355.154 184.165L379.017 182.77L410.64 193.979C414.336 195.298 417.584 197.634 420.008 200.72C422.432 203.805 423.934 207.513 424.341 211.416L430.879 274.849C431.113 277.116 430.69 279.402 429.661 281.436C428.632 283.47 427.04 285.165 425.075 286.32L417.49 289.944V300.518H385.444L356.985 309.897L349.91 300.518H332.835V231.842L290.924 243.986C287.644 244.929 284.157 244.876 280.908 243.832C277.658 242.787 274.792 240.8 272.676 238.123C270.559 235.445 269.287 232.198 269.021 228.795C268.755 225.392 269.508 221.987 271.183 219.014Z" fill="#176BFB"/>
<path d="M379.055 162.892C379.055 162.892 396.355 150.175 397.812 135.267C399.269 120.358 386.603 122.812 386.603 122.812C386.603 122.812 390.638 109.597 381.459 104.043C372.279 98.4877 364.022 105.562 364.022 105.562C364.022 105.562 354.618 92.3599 336.833 99.3346C319.047 106.309 329.597 128.18 339.05 130.086C339.05 130.086 339.187 137.833 343.285 142.142C347.382 146.451 376.128 151.284 379.055 162.892Z" fill="url(#paint9_linear_536_11365)"/>
<path d="M379.042 182.77V154C379.042 154 386.826 149.341 384.883 143.151C382.94 136.961 374.533 140.449 373.562 145.443C373.562 145.443 368.132 140.86 371.893 132.453C371.893 132.453 360.011 140.511 342.774 132.453C342.774 132.453 343.82 160.7 346.223 167.326C346.815 169.128 348.069 170.637 349.732 171.548C351.395 172.459 353.342 172.704 355.179 172.233V184.115C355.179 184.115 357.782 197.915 379.042 182.77Z" fill="url(#paint10_linear_536_11365)"/>
<path d="M397.812 559.804L394.723 539.639H417.553V559.804H397.812Z" fill="url(#paint11_linear_536_11365)"/>
<path d="M352.638 559.804H332.909V539.602H354.718L352.638 559.804Z" fill="url(#paint12_linear_536_11365)"/>
<path d="M370.921 164.461C370.921 164.461 367.995 176.555 355.178 176.555V172.27C355.178 172.27 364.868 171.124 370.921 164.461Z" fill="#1D164D"/>
<path d="M350.035 300.519L366.164 290.306L400.876 268.36L392.307 220.621C392.618 222.564 393.914 232.116 391.136 238.331C388.035 245.294 394.275 255.768 389.48 256.827C384.685 257.886 377.81 255.008 372.242 271.412C370.379 276.593 367.71 281.448 364.333 285.797C360.181 291.265 355.38 296.208 350.035 300.519Z" fill="#176BFB"/>
<path d="M283.351 334.756L324.913 340.199C329.889 340.852 334.944 340.518 339.791 339.217C344.637 337.916 349.18 335.673 353.16 332.616C357.139 329.56 360.478 325.749 362.985 321.402C365.492 317.055 367.118 312.256 367.77 307.281V307.019L367.845 306.384L357.01 309.946L349.948 300.555L366.077 290.33C365.566 288.78 364.954 287.266 364.246 285.796C361.656 280.38 357.825 275.651 353.064 271.993C348.303 268.336 342.746 265.853 336.845 264.748L332.822 264L298.21 257.486L283.351 334.756Z" fill="url(#paint13_linear_536_11365)"/>
<path d="M336.932 264.736C342.833 265.842 348.39 268.324 353.151 271.981C357.912 275.639 361.743 280.368 364.333 285.785C365.041 287.254 365.653 288.769 366.164 290.318L350.035 300.544L357.097 309.935L367.92 306.372L367.845 307.008C367.227 311.988 365.635 316.798 363.158 321.163C360.681 325.528 357.368 329.363 353.409 332.447C349.45 335.532 344.923 337.806 340.084 339.141C335.246 340.475 330.193 340.844 325.212 340.225H324.963L321.227 339.727C321.227 339.727 326.458 340.349 332.859 332.839C339.261 325.329 347.594 332.279 348.416 324.781C349.238 317.283 344.567 314.543 338.128 311.429C331.689 308.315 332.573 308.378 340.619 302.711C348.665 297.044 356.81 302.225 354.319 289.982C351.828 277.739 336.932 264.736 336.932 264.736Z" fill="url(#paint14_linear_536_11365)"/>
<path d="M385.518 300.569L417.552 290.007V295.985L385.518 300.569Z" fill="#176BFB"/>
<path d="M298.285 257.474C298.285 257.474 312.533 270.751 307.738 298.687C302.943 326.624 283.351 334.806 283.351 334.806C283.351 334.806 264.37 320.421 270.622 292.46C276.875 264.499 298.285 257.474 298.285 257.474Z" fill="url(#paint15_linear_536_11365)"/>
<path d="M357.047 309.959L347.47 313.833C345.266 314.712 342.821 314.776 340.574 314.014C338.328 313.251 336.427 311.712 335.214 309.673C335.032 309.364 334.979 308.995 335.068 308.647C335.156 308.3 335.379 308.001 335.687 307.817L335.949 307.705L343.658 305.214C343.658 305.214 340.968 304.579 340.482 302.723C339.997 300.867 342.388 302.549 344.792 302.163C347.196 301.777 347.432 300.668 349.985 300.568L357.047 309.959Z" fill="url(#paint16_linear_536_11365)"/>
<path d="M360.559 338.692L370.822 383.729L367.085 420.072L360.559 338.692Z" fill="#E08A8A"/>
<path d="M295.433 275.733C296.005 276.758 296.205 277.949 295.998 279.105C295.792 280.261 295.191 281.309 294.299 282.072C294.086 282.257 293.835 282.392 293.564 282.468C293.292 282.543 293.007 282.557 292.73 282.508L254.63 275.932C254.118 275.845 253.628 275.657 253.188 275.38C252.749 275.103 252.368 274.741 252.068 274.317C251.768 273.892 251.556 273.412 251.442 272.905C251.328 272.398 251.315 271.873 251.405 271.361C251.492 270.849 251.68 270.359 251.957 269.919C252.234 269.479 252.595 269.099 253.02 268.799C253.445 268.499 253.924 268.286 254.432 268.173C254.939 268.059 255.463 268.046 255.976 268.135L294.05 274.699C294.346 274.751 294.625 274.871 294.865 275.051C295.105 275.23 295.3 275.464 295.433 275.733Z" fill="url(#paint17_linear_536_11365)"/>
<path d="M269.427 274.475C269.514 273.963 269.702 273.473 269.979 273.033C270.257 272.593 270.618 272.213 271.043 271.913C271.467 271.613 271.947 271.4 272.454 271.286C272.961 271.172 273.486 271.16 273.998 271.249L294.15 274.724C294.418 274.792 294.669 274.917 294.884 275.091C295.099 275.265 295.274 275.484 295.395 275.733C295.968 276.758 296.168 277.95 295.961 279.105C295.755 280.261 295.154 281.309 294.262 282.073C294.049 282.257 293.798 282.392 293.527 282.468C293.255 282.543 292.97 282.557 292.693 282.508L272.491 279.034C271.49 278.817 270.612 278.222 270.04 277.372C269.469 276.522 269.249 275.484 269.427 274.475Z" fill="url(#paint18_linear_536_11365)"/>
<path d="M290.512 282.135L292.729 282.508C293.007 282.557 293.292 282.543 293.563 282.468C293.835 282.392 294.086 282.257 294.299 282.072C295.193 281.31 295.794 280.261 295.998 279.104C296.203 277.947 295.998 276.755 295.42 275.733C295.291 275.463 295.1 275.228 294.861 275.048C294.623 274.868 294.344 274.748 294.05 274.699L291.833 274.313C292.127 274.364 292.404 274.485 292.643 274.664C292.881 274.844 293.073 275.078 293.203 275.347C293.777 276.37 293.979 277.561 293.774 278.717C293.57 279.872 292.972 280.922 292.082 281.686C291.868 281.87 291.617 282.005 291.346 282.082C291.075 282.159 290.791 282.177 290.512 282.135Z" fill="url(#paint19_linear_536_11365)"/>
<path d="M291.111 303.147C291.685 304.17 291.886 305.361 291.682 306.516C291.478 307.672 290.88 308.721 289.99 309.486C289.776 309.669 289.525 309.804 289.254 309.882C288.983 309.959 288.699 309.977 288.42 309.934L250.308 303.358C249.796 303.269 249.305 303.08 248.865 302.802C248.426 302.523 248.045 302.161 247.745 301.735C247.446 301.31 247.233 300.829 247.119 300.321C247.006 299.813 246.993 299.288 247.083 298.775C247.17 298.262 247.358 297.772 247.635 297.333C247.912 296.893 248.274 296.512 248.698 296.213C249.123 295.913 249.603 295.7 250.11 295.586C250.617 295.472 251.142 295.46 251.654 295.549L289.741 302.113C290.035 302.162 290.314 302.282 290.552 302.462C290.791 302.642 290.982 302.877 291.111 303.147Z" fill="url(#paint20_linear_536_11365)"/>
<path d="M265.08 301.901C265.167 301.387 265.355 300.895 265.633 300.454C265.911 300.013 266.273 299.631 266.699 299.33C267.125 299.029 267.606 298.815 268.114 298.701C268.623 298.586 269.149 298.573 269.663 298.663L289.803 302.138C290.072 302.204 290.323 302.328 290.538 302.503C290.754 302.677 290.928 302.897 291.048 303.146C291.62 304.171 291.82 305.361 291.616 306.516C291.412 307.671 290.815 308.72 289.927 309.486C289.714 309.671 289.463 309.806 289.192 309.881C288.92 309.957 288.635 309.971 288.358 309.922L268.156 306.434C267.156 306.224 266.277 305.634 265.704 304.788C265.13 303.943 264.906 302.908 265.08 301.901Z" fill="url(#paint21_linear_536_11365)"/>
<path d="M286.129 309.548L288.333 309.934C288.614 309.978 288.9 309.961 289.173 309.883C289.446 309.806 289.699 309.67 289.915 309.486C290.805 308.721 291.403 307.672 291.607 306.516C291.812 305.361 291.61 304.17 291.036 303.146C290.908 302.877 290.716 302.642 290.478 302.462C290.239 302.282 289.961 302.162 289.666 302.113L287.436 301.727C287.73 301.782 288.008 301.905 288.247 302.084C288.487 302.263 288.682 302.494 288.819 302.76C289.391 303.785 289.591 304.977 289.385 306.133C289.178 307.288 288.578 308.337 287.686 309.1C287.475 309.284 287.226 309.42 286.957 309.498C286.688 309.575 286.405 309.592 286.129 309.548Z" fill="url(#paint22_linear_536_11365)"/>
<g opacity="0.2">
<path opacity="0.2" d="M310.59 202.349L335.948 190.043L336.509 189.794C336.489 191.761 336.863 193.711 337.607 195.531C338.351 197.351 339.452 199.004 340.843 200.393L355.241 214.804C358.018 217.579 361.783 219.138 365.709 219.138C369.635 219.138 373.401 217.579 376.178 214.804L390.551 200.431C392.111 198.874 393.302 196.987 394.037 194.91C394.772 192.832 395.032 190.616 394.798 188.424L410.678 194.004C414.914 195.503 418.55 198.335 421.04 202.075L376.203 246.912C373.426 249.688 369.66 251.247 365.734 251.247C361.808 251.247 358.043 249.688 355.266 246.912L310.59 202.349Z" fill="white"/>
</g>
<path d="M417.553 549.69C418.897 549.69 420.187 550.225 421.137 551.175C422.088 552.126 422.622 553.415 422.622 554.76V567.999C422.624 568.853 422.457 569.699 422.131 570.489C421.804 571.279 421.326 571.996 420.721 572.6C420.117 573.204 419.4 573.683 418.611 574.009C417.821 574.335 416.975 574.502 416.121 574.501H367.447C366.175 574.501 364.956 573.995 364.056 573.096C363.157 572.197 362.652 570.977 362.652 569.705C362.651 569.036 362.89 568.388 363.327 567.88C363.764 567.373 364.368 567.039 365.031 566.94C369.751 566.243 380.288 564.449 385.581 562.096C392.531 558.932 392.83 550.774 396.442 550.774C396.442 550.774 405.609 560.601 417.553 549.69Z" fill="url(#paint23_linear_536_11365)"/>
<path d="M354.02 549.69H353.684C355.064 549.678 356.395 550.198 357.402 551.142C358.408 552.086 359.013 553.382 359.089 554.759V567.999C359.089 569.723 358.404 571.377 357.185 572.596C355.966 573.815 354.312 574.5 352.588 574.5H303.914C302.643 574.5 301.423 573.995 300.524 573.096C299.624 572.197 299.119 570.977 299.119 569.705C299.118 569.035 299.357 568.388 299.794 567.88C300.231 567.372 300.836 567.039 301.498 566.94C306.231 566.243 316.755 564.449 322.061 562.095C329.011 558.932 329.297 550.774 332.909 550.774C332.909 550.774 342.076 560.601 354.02 549.69Z" fill="url(#paint24_linear_536_11365)"/>
<path d="M386.939 563.415C386.341 563.042 385.693 562.668 385.083 562.307L385.581 562.095C386.011 561.895 386.427 561.666 386.826 561.41L387.785 561.995C390.937 563.926 393.216 565.196 394.013 564.013C394.093 563.906 394.144 563.779 394.162 563.646C394.179 563.513 394.162 563.378 394.113 563.253C393.689 562.083 391.385 560.762 388.956 559.741C389.368 559.347 389.759 558.931 390.127 558.496C392.531 559.554 395.109 561.049 395.682 562.743C395.816 563.114 395.861 563.512 395.811 563.904C395.761 564.296 395.619 564.671 395.395 564.997C393.677 567.538 390.252 565.445 386.939 563.415Z" fill="white"/>
<path d="M378.369 564.412C380.188 565.881 382.043 567.376 383.214 566.691C383.268 566.66 383.315 566.617 383.351 566.566C383.476 566.081 381.769 564.487 380.935 563.727C381.582 563.54 382.18 563.353 382.778 563.154C384.024 564.399 385.132 565.583 385.02 566.741C384.982 567.031 384.876 567.308 384.709 567.549C384.542 567.789 384.32 567.986 384.061 568.123C383.606 568.399 383.085 568.545 382.554 568.547C380.81 568.547 378.992 567.065 377.236 565.632L376.314 564.885L378.369 564.412Z" fill="white"/>
<path d="M321.002 563.415L320.093 562.867C320.791 562.618 321.451 562.357 322.036 562.095C325.1 563.963 327.317 565.184 328.089 564.026C328.172 563.92 328.227 563.794 328.246 563.661C328.266 563.527 328.25 563.391 328.201 563.266C327.877 562.357 326.408 561.36 324.627 560.476C325.066 560.086 325.482 559.67 325.872 559.23C327.666 560.189 329.272 561.36 329.733 562.656C329.868 563.027 329.912 563.425 329.862 563.817C329.812 564.209 329.67 564.584 329.447 564.91C327.753 567.55 324.328 565.446 321.002 563.415Z" fill="white"/>
<path d="M312.994 564.847C314.625 566.155 316.232 567.338 317.291 566.691C317.345 566.66 317.391 566.617 317.428 566.566C317.515 566.168 316.406 565.047 315.547 564.225L317.428 563.727C318.449 564.76 319.196 565.757 319.084 566.741C319.052 567.031 318.949 567.309 318.784 567.55C318.618 567.791 318.397 567.988 318.138 568.123C317.678 568.398 317.153 568.545 316.618 568.547C314.874 568.547 313.068 567.064 311.312 565.632L310.901 565.296L312.994 564.847Z" fill="white"/>
<path d="M429.746 126.524C434.553 126.674 439.262 125.141 443.06 122.19C446.734 119.213 448.378 115.813 447.955 112.114C446.597 100.12 424.204 88.9975 423.244 88.5366L422.871 89.3088C423.095 89.4209 445.8 100.68 447.12 112.213C447.507 115.601 445.962 118.74 442.525 121.53C434.74 127.857 422.846 126.2 413.629 121.53C414.502 121.085 415.307 120.519 416.021 119.848C421.003 120.658 427.155 120.209 430.967 116.411C434.778 112.612 434.778 109.772 433.956 108.178C431.701 103.794 421.837 102.561 408.236 104.952C403.254 105.836 401.859 107.904 401.573 109.486C400.975 112.786 404.612 117.307 410.852 120.994L411.624 121.442C409.755 122.053 407.799 122.352 405.833 122.327V123.174C408.151 123.206 410.453 122.782 412.608 121.928C417.875 124.798 423.75 126.373 429.746 126.524ZM414.962 119.674C414.272 120.231 413.509 120.692 412.695 121.044C412.222 120.795 411.774 120.533 411.313 120.272C405.484 116.822 401.922 112.55 402.445 109.66C402.781 107.767 404.849 106.434 408.423 105.812C421.439 103.52 431.178 104.566 433.233 108.589C434.23 110.519 433.233 113.01 430.406 115.813C426.906 119.275 421.389 119.773 416.706 119.113C416.967 118.79 417.193 118.439 417.378 118.067C417.724 117.468 417.891 116.783 417.861 116.092C417.83 115.402 417.602 114.734 417.204 114.169C415.958 112.587 413.405 112.051 410.067 112.674C407.975 113.073 406.854 113.77 406.704 114.767C406.567 115.8 407.589 116.921 409.594 117.93C411.297 118.739 413.097 119.325 414.95 119.674H414.962ZM412.658 113.272C413.366 113.196 414.083 113.283 414.752 113.527C415.421 113.771 416.026 114.165 416.519 114.679C416.819 115.121 416.987 115.64 417.002 116.174C417.018 116.708 416.88 117.235 416.606 117.693C416.366 118.148 416.064 118.567 415.709 118.939C413.727 118.605 411.799 118.002 409.98 117.145C408.087 116.199 407.489 115.34 407.564 114.854C407.564 114.592 407.937 113.932 410.229 113.496C411.029 113.333 411.842 113.25 412.658 113.247V113.272Z" fill="#989A9C"/>
<path d="M262.464 105.475H302.992C303.54 105.564 304.1 105.544 304.641 105.416C305.181 105.288 305.69 105.055 306.14 104.73C306.59 104.405 306.972 103.994 307.263 103.521C307.554 103.049 307.749 102.523 307.837 101.975C307.936 101.387 307.908 100.784 307.753 100.208C307.598 99.6321 307.321 99.0962 306.94 98.637L286.664 63.5018C286.36 62.7005 285.82 62.0105 285.115 61.5236C284.409 61.0367 283.573 60.7759 282.716 60.7759C281.859 60.7759 281.022 61.0367 280.317 61.5236C279.612 62.0105 279.071 62.7005 278.767 63.5018L258.478 98.637C257.937 99.3007 257.609 100.114 257.541 100.968C257.472 101.822 257.664 102.677 258.093 103.419C258.521 104.161 259.165 104.755 259.939 105.122C260.713 105.489 261.581 105.612 262.427 105.475H262.464ZM282.753 62.4058C283.308 62.4716 283.837 62.6824 284.285 63.0168C284.733 63.3513 285.085 63.7978 285.306 64.3114L305.583 99.4466C305.97 99.8588 306.215 100.384 306.282 100.945C306.349 101.506 306.236 102.074 305.958 102.567C305.68 103.059 305.252 103.449 304.736 103.681C304.221 103.913 303.645 103.974 303.092 103.856H262.464C261.911 103.974 261.335 103.913 260.82 103.681C260.304 103.449 259.876 103.059 259.598 102.567C259.32 102.074 259.206 101.506 259.274 100.945C259.341 100.384 259.586 99.8588 259.973 99.4466L280.262 64.3114C280.475 63.8109 280.812 63.3731 281.241 63.0396C281.67 62.706 282.178 62.4879 282.716 62.4058H282.753Z" fill="#989A9C"/>
<path d="M285.257 94.1657C285.274 93.6661 285.14 93.1728 284.874 92.75C284.607 92.3273 284.219 91.9947 283.76 91.7954C283.302 91.5962 282.794 91.5395 282.302 91.6328C281.811 91.7261 281.359 91.9651 281.006 92.3186C280.652 92.6722 280.413 93.1239 280.32 93.6151C280.227 94.1063 280.283 94.6142 280.483 95.0727C280.682 95.5313 281.015 95.9193 281.437 96.1862C281.86 96.4531 282.353 96.5867 282.853 96.5695C283.484 96.5478 284.083 96.2876 284.529 95.8414C284.975 95.3952 285.235 94.7964 285.257 94.1657ZM285.182 77.8125H280.2L281.022 89.9186H284.31L285.182 77.8125Z" fill="#989A9C"/>
<defs>
<linearGradient id="paint0_linear_536_11365" x1="84.2452" y1="577.328" x2="84.2452" y2="476.228" gradientUnits="userSpaceOnUse">
<stop stop-color="#1D164D"/>
<stop offset="1" stop-color="#4A4975"/>
</linearGradient>
<linearGradient id="paint1_linear_536_11365" x1="-110687" y1="-235123" x2="-110755" y2="-234912" gradientUnits="userSpaceOnUse">
<stop stop-color="#1D164D"/>
<stop offset="1" stop-color="#4A4975"/>
</linearGradient>
<linearGradient id="paint2_linear_536_11365" x1="218.157" y1="484.309" x2="192" y2="555.627" gradientUnits="userSpaceOnUse">
<stop stop-color="#1D9EFF"/>
<stop offset="1" stop-color="#0F2CE0"/>
</linearGradient>
<linearGradient id="paint3_linear_536_11365" x1="-636672" y1="-5.99812e+06" x2="-639000" y2="-5.99794e+06" gradientUnits="userSpaceOnUse">
<stop stop-color="#5CA0D3"/>
<stop offset="1" stop-color="#6236D9"/>
</linearGradient>
<linearGradient id="paint4_linear_536_11365" x1="205.051" y1="550.24" x2="205.051" y2="465.374" gradientUnits="userSpaceOnUse">
<stop stop-color="#6236D9"/>
<stop offset="1" stop-color="#6236D9"/>
</linearGradient>
<linearGradient id="paint5_linear_536_11365" x1="-256.045" y1="532.479" x2="-256.25" y2="526.325" gradientUnits="userSpaceOnUse">
<stop stop-color="#6236D9"/>
<stop offset="1" stop-color="#6236D9"/>
</linearGradient>
<linearGradient id="paint6_linear_536_11365" x1="333.149" y1="124.268" x2="322.028" y2="137.739" gradientUnits="userSpaceOnUse">
<stop stop-color="#FFC0AC"/>
<stop offset="1" stop-color="#FFD6C7"/>
</linearGradient>
<linearGradient id="paint7_linear_536_11365" x1="375.231" y1="300.668" x2="375.231" y2="539.602" gradientUnits="userSpaceOnUse">
<stop stop-color="#C84040"/>
<stop offset="1" stop-color="#EA5858"/>
</linearGradient>
<linearGradient id="paint8_linear_536_11365" x1="-2.25241e+06" y1="-4.50254e+06" x2="-2.24979e+06" y2="-4.49729e+06" gradientUnits="userSpaceOnUse">
<stop stop-color="#5CA0D3"/>
<stop offset="1" stop-color="#6236D9"/>
</linearGradient>
<linearGradient id="paint9_linear_536_11365" x1="-1.56151e+06" y1="-2.78707e+06" x2="-1.5626e+06" y2="-2.79075e+06" gradientUnits="userSpaceOnUse">
<stop stop-color="#1D164D"/>
<stop offset="1" stop-color="#4A4975"/>
</linearGradient>
<linearGradient id="paint10_linear_536_11365" x1="-555483" y1="-2.13543e+06" x2="-554156" y2="-2.13677e+06" gradientUnits="userSpaceOnUse">
<stop stop-color="#FFC0AC"/>
<stop offset="1" stop-color="#FFD6C7"/>
</linearGradient>
<linearGradient id="paint11_linear_536_11365" x1="-155454" y1="-263493" x2="-155525" y2="-263814" gradientUnits="userSpaceOnUse">
<stop stop-color="#FFC0AC"/>
<stop offset="1" stop-color="#FFD6C7"/>
</linearGradient>
<linearGradient id="paint12_linear_536_11365" x1="-142675" y1="-263987" x2="-142756" y2="-264296" gradientUnits="userSpaceOnUse">
<stop stop-color="#FFC0AC"/>
<stop offset="1" stop-color="#FFD6C7"/>
</linearGradient>
<linearGradient id="paint13_linear_536_11365" x1="331.023" y1="299.703" x2="309.545" y2="362.631" gradientUnits="userSpaceOnUse">
<stop stop-color="#1D9EFF"/>
<stop offset="1" stop-color="#0F2CE0"/>
</linearGradient>
<linearGradient id="paint14_linear_536_11365" x1="-675393" y1="-3.74073e+06" x2="-678233" y2="-3.74391e+06" gradientUnits="userSpaceOnUse">
<stop stop-color="#6236D9"/>
<stop offset="1" stop-color="#6236D9"/>
</linearGradient>
<linearGradient id="paint15_linear_536_11365" x1="-480363" y1="-3.8971e+06" x2="-478406" y2="-3.89696e+06" gradientUnits="userSpaceOnUse">
<stop stop-color="#5CA0D3"/>
<stop offset="1" stop-color="#6236D9"/>
</linearGradient>
<linearGradient id="paint16_linear_536_11365" x1="-145376" y1="-122930" x2="-145404" y2="-123142" gradientUnits="userSpaceOnUse">
<stop stop-color="#FFC0AC"/>
<stop offset="1" stop-color="#FFD6C7"/>
</linearGradient>
<linearGradient id="paint17_linear_536_11365" x1="276.584" y1="275.428" x2="275.227" y2="287.511" gradientUnits="userSpaceOnUse">
<stop stop-color="#1D9EFF"/>
<stop offset="1" stop-color="#0F2CE0"/>
</linearGradient>
<linearGradient id="paint18_linear_536_11365" x1="284.416" y1="276.959" x2="283.028" y2="286.354" gradientUnits="userSpaceOnUse">
<stop stop-color="#1D9EFF"/>
<stop offset="1" stop-color="#0F2CE0"/>
</linearGradient>
<linearGradient id="paint19_linear_536_11365" x1="293.651" y1="278.494" x2="290.824" y2="284.001" gradientUnits="userSpaceOnUse">
<stop stop-color="#1D9EFF"/>
<stop offset="1" stop-color="#0F2CE0"/>
</linearGradient>
<linearGradient id="paint20_linear_536_11365" x1="272.264" y1="302.845" x2="270.906" y2="314.933" gradientUnits="userSpaceOnUse">
<stop stop-color="#1D9EFF"/>
<stop offset="1" stop-color="#0F2CE0"/>
</linearGradient>
<linearGradient id="paint21_linear_536_11365" x1="280.07" y1="304.373" x2="278.682" y2="313.768" gradientUnits="userSpaceOnUse">
<stop stop-color="#1D9EFF"/>
<stop offset="1" stop-color="#0F2CE0"/>
</linearGradient>
<linearGradient id="paint22_linear_536_11365" x1="289.264" y1="305.911" x2="286.43" y2="311.418" gradientUnits="userSpaceOnUse">
<stop stop-color="#1D9EFF"/>
<stop offset="1" stop-color="#0F2CE0"/>
</linearGradient>
<linearGradient id="paint23_linear_536_11365" x1="-1.11722e+06" y1="-400102" x2="-1.11724e+06" y2="-400733" gradientUnits="userSpaceOnUse">
<stop stop-color="#FF8A5F"/>
<stop offset="1" stop-color="#FFB965"/>
</linearGradient>
<linearGradient id="paint24_linear_536_11365" x1="-1.12007e+06" y1="-399939" x2="-1.1201e+06" y2="-400763" gradientUnits="userSpaceOnUse">
<stop stop-color="#FF8A5F"/>
<stop offset="1" stop-color="#FFB965"/>
</linearGradient>
</defs>
</svg>
