<svg width="212" height="13" viewBox="0 0 212 13" fill="none" xmlns="http://www.w3.org/2000/svg">
<g clip-path="url(#clip0_824_13412)">
<rect x="0.0078125" y="-0.00634766" width="211.992" height="13.3" fill="#C84040"/>
<mask id="mask0_824_13412" style="mask-type:alpha" maskUnits="userSpaceOnUse" x="0" y="-1" width="212" height="15">
<rect x="0.0078125" y="-0.00634766" width="211.992" height="13.3" fill="url(#paint0_linear_824_13412)"/>
</mask>
<g mask="url(#mask0_824_13412)">
<ellipse opacity="0.1" rx="27.983" ry="4.14057" transform="matrix(-1 0 0 1 13.2944 11.0771)" stroke="white" stroke-width="18.3721"/>
<ellipse opacity="0.2" rx="9.4063" ry="13.1837" transform="matrix(0.978493 0.206279 -0.99465 0.103301 13.4463 11.0952)" stroke="white" stroke-width="0.612403"/>
<ellipse opacity="0.1" rx="39.1195" ry="36.5831" transform="matrix(0.990618 -0.136663 0.98764 0.156742 182.908 4.80685)" stroke="white" stroke-width="33.4653"/>
<ellipse opacity="0.2" rx="6.37412" ry="31.3719" transform="matrix(0.685467 0.728103 0.999788 -0.0206078 182.905 4.80653)" stroke="white" stroke-width="0.836634"/>
</g>
<path d="M101.125 2.90887C101.345 2.90875 101.523 2.98197 101.659 3.12854C101.801 3.26845 101.874 3.45172 101.878 3.67836L101.965 9.28767C101.969 9.52097 101.902 9.71099 101.764 9.85772C101.633 9.99778 101.458 10.0679 101.238 10.068C100.998 10.0681 100.803 9.98158 100.654 9.80836L97.2364 5.52079L97.2955 9.29033C97.2991 9.52363 97.2354 9.71365 97.1044 9.86037C96.9799 10.0004 96.8077 10.0705 96.5877 10.0706C96.3677 10.0708 96.1899 10.0009 96.0544 9.86097C95.9188 9.7144 95.8491 9.52446 95.8455 9.29116L95.7575 3.68185C95.754 3.45521 95.8178 3.27186 95.9489 3.1318C96.0866 2.98507 96.2655 2.91164 96.4855 2.91152C96.7321 2.91138 96.9235 2.99792 97.0595 3.17116L100.476 7.42873L100.418 3.67919C100.414 3.45255 100.478 3.2692 100.609 3.12914C100.74 2.98242 100.912 2.90899 101.125 2.90887ZM107.173 8.54478C107.307 8.54471 107.414 8.59797 107.496 8.70458C107.584 8.81118 107.63 8.94781 107.632 9.11446C107.634 9.22778 107.602 9.33445 107.537 9.43447C107.472 9.52783 107.38 9.60788 107.261 9.6746C107.036 9.79472 106.775 9.89486 106.476 9.97502C106.177 10.0485 105.901 10.0853 105.648 10.0855C105.114 10.0858 104.646 9.98273 104.243 9.77631C103.846 9.5699 103.538 9.27677 103.319 8.89694C103.099 8.51044 102.986 8.05723 102.978 7.53729C102.97 7.03735 103.066 6.59401 103.267 6.20728C103.467 5.82054 103.749 5.52041 104.113 5.3069C104.476 5.08671 104.891 4.97649 105.357 4.97622C105.804 4.97597 106.196 5.07574 106.532 5.27552C106.875 5.46864 107.143 5.74845 107.335 6.11497C107.528 6.47482 107.628 6.89804 107.635 7.38465C107.638 7.5313 107.603 7.64464 107.531 7.72467C107.465 7.79803 107.369 7.83475 107.242 7.83482L104.442 7.83642C104.495 8.22968 104.62 8.51624 104.816 8.69611C105.012 8.86931 105.29 8.95581 105.65 8.9556C105.843 8.95549 106.016 8.93206 106.169 8.88532C106.321 8.83857 106.49 8.77515 106.676 8.69505C106.768 8.655 106.858 8.62162 106.944 8.59491C107.03 8.56153 107.107 8.54482 107.173 8.54478ZM105.414 6.01607C105.127 6.01624 104.899 6.10969 104.728 6.29643C104.558 6.47651 104.458 6.73987 104.431 7.08651L106.361 7.08541C106.335 6.73213 106.241 6.46555 106.078 6.28566C105.922 6.10577 105.7 6.01591 105.414 6.01607ZM115.019 5.43066C115.077 5.29065 115.158 5.18395 115.264 5.11056C115.37 5.03718 115.482 5.00045 115.602 5.00038C115.789 5.00028 115.957 5.06351 116.105 5.19007C116.254 5.31664 116.33 5.47325 116.333 5.65989C116.334 5.73988 116.315 5.82988 116.277 5.92989L114.695 9.61037C114.637 9.75706 114.542 9.87043 114.41 9.9505C114.278 10.0239 114.138 10.0606 113.992 10.0607C113.838 10.0608 113.694 10.0242 113.56 9.95098C113.432 9.87106 113.337 9.7578 113.275 9.61118L112.166 7.1221L111.175 9.61238C111.117 9.75906 111.025 9.87244 110.9 9.9525C110.774 10.0259 110.632 10.0626 110.472 10.0627C110.318 10.0628 110.174 10.0262 110.04 9.95299C109.905 9.87307 109.807 9.75981 109.745 9.6132L108.057 5.93458C108.015 5.84128 107.994 5.7513 107.993 5.66464C107.99 5.478 108.064 5.32131 108.215 5.19457C108.373 5.06783 108.552 5.0044 108.752 5.00429C108.886 5.00421 109.006 5.0408 109.114 5.11407C109.228 5.18733 109.317 5.29393 109.379 5.43388L110.491 8.12294L111.539 5.45265C111.597 5.31263 111.682 5.20593 111.794 5.13254C111.913 5.05248 112.042 5.01241 112.182 5.01233C112.322 5.01225 112.453 5.04884 112.574 5.12209C112.695 5.19535 112.787 5.30528 112.849 5.4519L114.001 8.12094L115.019 5.43066Z" fill="white"/>
</g>
<defs>
<linearGradient id="paint0_linear_824_13412" x1="188.257" y1="-0.622088" x2="186.883" y2="18.9652" gradientUnits="userSpaceOnUse">
<stop stop-color="#0F2CE0"/>
<stop offset="1" stop-color="#1836EB"/>
</linearGradient>
<clipPath id="clip0_824_13412">
<rect width="212" height="13" fill="white"/>
</clipPath>
</defs>
</svg>
