<svg width="32" height="33" viewBox="0 0 32 33" fill="none" xmlns="http://www.w3.org/2000/svg">
<g clip-path="url(#clip0_309_8561)">
<rect y="0.143066" width="32" height="32" rx="8" fill="white"/>
<rect y="0.143066" width="32" height="32" rx="12" fill="#FCC210"/>
<mask id="mask0_309_8561" style="mask-type:alpha" maskUnits="userSpaceOnUse" x="0" y="0" width="32" height="33">
<rect y="0.143066" width="32" height="32" rx="12" fill="url(#paint0_linear_309_8561)"/>
</mask>
<g mask="url(#mask0_309_8561)">
<ellipse opacity="0.1" rx="4.224" ry="9.96227" transform="matrix(-1 0 0 1 2.00549 26.8099)" stroke="white" stroke-width="18.3721"/>
<ellipse opacity="0.2" rx="4.8708" ry="3.8282" transform="matrix(0.285237 0.958457 -0.517065 0.855946 2.02905 26.8534)" stroke="white" stroke-width="0.612403"/>
<ellipse opacity="0.1" rx="14.1307" ry="14.8352" transform="matrix(0.413968 -0.910291 0.367633 0.929971 27.6083 11.7229)" stroke="white" stroke-width="33.4653"/>
<ellipse opacity="0.2" rx="11.1858" ry="4.98353" transform="matrix(0.0589616 0.99826 0.95004 -0.312129 27.6079 11.7227)" stroke="white" stroke-width="0.836634"/>
</g>
<g clip-path="url(#clip1_309_8561)">
<path d="M20.6121 13.7557C20.5288 13.739 20.4663 13.7307 20.4246 13.7307C20.1163 13.7307 19.8496 13.8348 19.6246 14.0432C19.1163 13.8182 18.6413 13.6348 18.1996 13.4932C17.4746 13.2598 16.7163 13.0682 15.9246 12.9182C15.8496 12.7182 15.7371 12.5515 15.5871 12.4182C15.7954 11.4348 16.0746 10.5432 16.4246 9.74316C17.4746 9.81816 18.4392 10.1223 19.3184 10.6557C20.1975 11.189 20.9079 11.889 21.4496 12.7557C21.1413 13.089 20.8621 13.4223 20.6121 13.7557ZM14.8121 12.1307C14.5954 12.1307 14.3913 12.189 14.1996 12.3057C13.5246 11.8057 12.8454 11.3807 12.1621 11.0307C13.1954 10.2473 14.3538 9.81816 15.6371 9.74316C15.3121 10.4682 15.0496 11.264 14.8496 12.1307H14.8121ZM10.4746 12.9057C10.7579 12.4307 11.1163 11.9807 11.5496 11.5557C12.1163 11.8473 12.7038 12.2057 13.3121 12.6307C12.2371 12.6057 11.2913 12.6973 10.4746 12.9057ZM13.6121 13.4057C13.6288 13.664 13.7184 13.8911 13.8809 14.0869C14.0434 14.2827 14.2454 14.414 14.4871 14.4807C14.4371 15.064 14.4121 15.6182 14.4121 16.1432C14.4121 16.5098 14.4246 16.9307 14.4496 17.4057C14.2663 17.464 14.1038 17.564 13.9621 17.7057C13.5121 17.5307 13.0788 17.3307 12.6621 17.1057C12.7538 16.9223 12.7996 16.7348 12.7996 16.5432C12.7996 16.2098 12.6829 15.9265 12.4496 15.6932C12.2163 15.4598 11.9329 15.3432 11.5996 15.3432C11.2329 15.3432 10.9288 15.4848 10.6871 15.7682C10.3371 15.4515 10.0246 15.1223 9.74961 14.7807C9.82461 14.4223 9.93711 14.0682 10.0871 13.7182C11.1038 13.4348 12.2788 13.3307 13.6121 13.4057ZM10.4121 16.6432C10.4371 16.9515 10.5642 17.2119 10.7934 17.4244C11.0225 17.6369 11.2913 17.7432 11.5996 17.7432C11.6913 17.7432 11.7913 17.7265 11.8996 17.6932C12.4329 18.0015 13.0038 18.2682 13.6121 18.4932V18.5432C13.6121 18.8682 13.7225 19.1452 13.9434 19.3744C14.1642 19.6036 14.4371 19.7265 14.7621 19.7432C14.9704 20.7598 15.2621 21.689 15.6371 22.5307C14.8038 22.4807 14.0163 22.2786 13.2746 21.9244C12.5329 21.5702 11.8934 21.1098 11.3559 20.5432C10.8184 19.9765 10.3913 19.3098 10.0746 18.5432C9.75794 17.7765 9.59961 16.9765 9.59961 16.1432C9.59961 16.1348 9.60378 16.0223 9.61211 15.8057C9.84544 16.0973 10.1121 16.3765 10.4121 16.6432ZM15.8621 19.1057C16.4621 19.214 17.0663 19.2848 17.6746 19.3182C17.7329 19.4848 17.8246 19.639 17.9496 19.7807C17.7579 20.6557 17.6413 21.5057 17.5996 22.3307C17.1746 22.439 16.7829 22.5057 16.4246 22.5307C16.0329 21.639 15.7288 20.6307 15.5121 19.5057C15.6621 19.4057 15.7788 19.2723 15.8621 19.1057ZM19.7371 19.7057C19.8454 19.5723 19.9204 19.4307 19.9621 19.2807C20.5704 19.2307 21.1579 19.1515 21.7246 19.0432C21.3246 19.8265 20.7746 20.5057 20.0746 21.0807C19.9996 20.6473 19.8871 20.189 19.7371 19.7057ZM17.6996 18.5182C17.1163 18.4848 16.5413 18.4098 15.9746 18.2932C15.8829 17.8765 15.6454 17.589 15.2621 17.4307C15.2288 16.939 15.2121 16.5098 15.2121 16.1432C15.2121 15.5932 15.2371 15.0223 15.2871 14.4307C15.3038 14.4307 15.3246 14.4223 15.3496 14.4057C15.3746 14.389 15.3913 14.3807 15.3996 14.3807C15.7246 14.6973 16.0079 14.989 16.2496 15.2557C16.9746 16.0557 17.5913 16.964 18.0996 17.9807C17.9163 18.1223 17.7829 18.3015 17.6996 18.5182ZM18.8121 20.1432C18.8288 20.1432 18.8746 20.139 18.9496 20.1307C19.0913 20.639 19.1954 21.1432 19.2621 21.6432C19.0204 21.7848 18.7288 21.9265 18.3871 22.0682C18.4454 21.4182 18.5454 20.7723 18.6871 20.1307C18.7538 20.139 18.7954 20.1432 18.8121 20.1432ZM18.7496 17.1557C18.7413 17.1723 18.7309 17.1973 18.7184 17.2307C18.7059 17.264 18.6954 17.289 18.6871 17.3057C18.1621 16.3557 17.5454 15.4932 16.8371 14.7182C16.5788 14.4265 16.2704 14.1098 15.9121 13.7682C15.9204 13.7682 15.9267 13.7619 15.9309 13.7494L15.9371 13.7307C16.6371 13.8723 17.3079 14.0473 17.9496 14.2557C18.3413 14.3807 18.7704 14.5473 19.2371 14.7557C19.2204 14.839 19.2121 14.9015 19.2121 14.9432C19.2121 15.1932 19.2871 15.4223 19.4371 15.6307C19.1621 16.1557 18.9329 16.664 18.7496 17.1557ZM19.3371 17.8807C19.4371 17.589 19.4871 17.439 19.4871 17.4307C19.6538 17.014 19.8621 16.5682 20.1121 16.0932C20.2204 16.1265 20.3246 16.1432 20.4246 16.1432C20.7079 16.1432 20.9621 16.0473 21.1871 15.8557C21.5954 16.139 21.9954 16.4557 22.3871 16.8057C22.3371 17.2807 22.2371 17.739 22.0871 18.1807C21.4038 18.3223 20.6829 18.4223 19.9246 18.4807C19.8163 18.214 19.6204 18.014 19.3371 17.8807ZM21.6246 14.9307C21.6246 14.6557 21.5329 14.4057 21.3496 14.1807C21.5246 13.9557 21.6996 13.7515 21.8746 13.5682C22.1746 14.2515 22.3496 14.9557 22.3996 15.6807C22.1246 15.4723 21.8579 15.2848 21.5996 15.1182C21.6163 15.0432 21.6246 14.9807 21.6246 14.9307Z" fill="white"/>
</g>
</g>
<defs>
<linearGradient id="paint0_linear_309_8561" x1="28.416" y1="-1.33841" x2="4.88235" y2="19.7167" gradientUnits="userSpaceOnUse">
<stop stop-color="#0F2CE0"/>
<stop offset="1" stop-color="#1836EB"/>
</linearGradient>
<clipPath id="clip0_309_8561">
<rect y="0.143066" width="32" height="32" rx="8" fill="white"/>
</clipPath>
<clipPath id="clip1_309_8561">
<rect width="12.8" height="12.7875" fill="white" transform="translate(9.59961 9.74316)"/>
</clipPath>
</defs>
</svg>
