<svg width="212" height="13" viewBox="0 0 212 13" fill="none" xmlns="http://www.w3.org/2000/svg">
<g clip-path="url(#clip0_824_13434)">
<rect width="212" height="13.3" fill="#176BFB"/>
<mask id="mask0_824_13434" style="mask-type:alpha" maskUnits="userSpaceOnUse" x="0" y="0" width="212" height="14">
<rect width="212" height="13.3" fill="url(#paint0_linear_824_13434)"/>
</mask>
<g mask="url(#mask0_824_13434)">
<ellipse opacity="0.1" rx="27.984" ry="4.14057" transform="matrix(-1 0 0 1 13.2845 11.0834)" stroke="white" stroke-width="18.3721"/>
<ellipse opacity="0.2" rx="9.40663" ry="13.1842" transform="matrix(0.978495 0.206272 -0.994651 0.103297 13.4393 11.1015)" stroke="white" stroke-width="0.612403"/>
<ellipse opacity="0.1" rx="39.121" ry="36.5844" transform="matrix(0.990618 -0.136658 0.987641 0.156736 182.907 4.81271)" stroke="white" stroke-width="33.4653"/>
<ellipse opacity="0.2" rx="6.37423" ry="31.373" transform="matrix(0.685481 0.728091 0.999788 -0.0206071 182.905 4.81287)" stroke="white" stroke-width="0.836634"/>
</g>
<path d="M103.261 2.91455C103.494 2.91426 103.681 2.98403 103.822 3.12385C103.963 3.26367 104.034 3.45024 104.036 3.68357L104.076 9.29343C104.078 9.52675 104.009 9.71684 103.87 9.86368C103.731 10.0038 103.545 10.0741 103.312 10.0744C103.078 10.0747 102.891 10.0049 102.75 9.86508C102.616 9.72525 102.548 9.53534 102.546 9.29535L102.53 7.0554L99.2801 7.05948L99.2961 9.29943C99.2977 9.53275 99.2291 9.72284 99.0901 9.86968C98.9511 10.0098 98.7683 10.0801 98.5416 10.0804C98.3083 10.0807 98.1211 10.0109 97.9801 9.87107C97.8391 9.73125 97.7678 9.54134 97.7661 9.30135L97.7261 3.69149C97.7245 3.45816 97.7931 3.27141 97.9321 3.13124C98.0711 2.99107 98.2573 2.92083 98.4906 2.92054C98.724 2.92025 98.9078 2.99002 99.0421 3.12985C99.1831 3.26967 99.2545 3.45624 99.2561 3.68957L99.2713 5.81951L102.521 5.81544L102.506 3.68549C102.504 3.45216 102.57 3.26542 102.702 3.12525C102.841 2.98508 103.027 2.91485 103.261 2.91455ZM107.727 10.0888C107.207 10.0895 106.749 9.98673 106.354 9.78056C105.96 9.56773 105.654 9.27145 105.438 8.89172C105.222 8.50533 105.112 8.05215 105.108 7.53216C105.105 7.01217 105.208 6.56205 105.419 6.18179C105.629 5.79487 105.931 5.49783 106.322 5.29067C106.714 5.08352 107.17 4.97961 107.69 4.97896C108.21 4.97831 108.668 5.08107 109.062 5.28723C109.457 5.4934 109.763 5.78968 109.979 6.17607C110.195 6.55579 110.305 7.00565 110.308 7.52563C110.312 8.04562 110.209 8.49908 109.998 8.886C109.787 9.26626 109.486 9.5633 109.094 9.77712C108.703 9.98428 108.247 10.0882 107.727 10.0888ZM107.718 8.93886C108.452 8.93794 108.815 8.46749 108.808 7.52752C108.805 7.05419 108.706 6.70099 108.511 6.46791C108.323 6.23481 108.052 6.11849 107.698 6.11893C106.965 6.11985 106.602 6.5903 106.608 7.53028C106.615 8.47025 106.985 8.93978 107.718 8.93886ZM113.919 8.96108C114.119 8.97416 114.266 9.02398 114.36 9.11052C114.454 9.19707 114.501 9.32367 114.502 9.49034C114.504 9.68367 114.428 9.83042 114.276 9.93061C114.123 10.0308 113.903 10.0711 113.616 10.0514L113.336 10.0318C112.169 9.93993 111.581 9.33067 111.573 8.20403L111.559 6.22408L111.159 6.22459C110.939 6.22486 110.772 6.17841 110.658 6.08522C110.544 5.98536 110.486 5.84544 110.485 5.66544C110.484 5.47878 110.54 5.33871 110.652 5.24524C110.765 5.1451 110.931 5.09489 111.151 5.09462L111.551 5.09411L111.546 4.31413C111.544 4.09414 111.609 3.92073 111.742 3.7939C111.881 3.66706 112.067 3.60349 112.301 3.6032C112.534 3.6029 112.718 3.66601 112.852 3.7925C112.986 3.919 113.054 4.09224 113.056 4.31224L113.061 5.09222L113.761 5.09134C114.214 5.09077 114.443 5.28048 114.445 5.66047C114.446 5.84047 114.391 5.98053 114.278 6.08067C114.166 6.17415 113.996 6.22103 113.769 6.22131L113.069 6.22219L113.084 8.31214C113.085 8.51213 113.133 8.6654 113.227 8.77195C113.321 8.87183 113.458 8.92832 113.639 8.94143L113.919 8.96108Z" fill="white"/>
</g>
<defs>
<linearGradient id="paint0_linear_824_13434" x1="188.256" y1="-0.61574" x2="186.883" y2="18.9716" gradientUnits="userSpaceOnUse">
<stop stop-color="#0F2CE0"/>
<stop offset="1" stop-color="#1836EB"/>
</linearGradient>
<clipPath id="clip0_824_13434">
<rect width="212" height="13" fill="white"/>
</clipPath>
</defs>
</svg>
