<svg width="150" height="49" viewBox="0 0 150 49" fill="none" xmlns="http://www.w3.org/2000/svg">
<rect y="0.143066" width="150" height="48" rx="8" fill="#C4C4C4"/>
<mask id="mask0_309_8587" style="mask-type:alpha" maskUnits="userSpaceOnUse" x="0" y="0" width="150" height="49">
<rect y="0.143066" width="150" height="48" rx="8" fill="#C4C4C4"/>
</mask>
<g mask="url(#mask0_309_8587)">
<rect y="0.143066" width="150" height="48" rx="8" fill="url(#paint0_linear_309_8587)"/>
<ellipse opacity="0.5" rx="30.2613" ry="29.6379" transform="matrix(0.820883 -0.571096 0.77817 0.628054 132.246 14.8394)" fill="url(#paint1_linear_309_8587)"/>
<path opacity="0.05" d="M-10.6755 70.7358H9.68942L94.4746 0.143356H22.1161L-21.3517 36.7951L-10.6755 70.7358Z" fill="url(#paint2_linear_309_8587)"/>
<path opacity="0.05" d="M22.1152 0.143353L-21.3525 36.7951L-10.6764 53.2085L52.582 0.143353H22.1152Z" fill="url(#paint3_linear_309_8587)"/>
<mask id="path-7-inside-1_309_8587" fill="white">
<ellipse cx="149.733" cy="47.9435" rx="33.8968" ry="25.4"/>
</mask>
<path d="M123.63 47.9435C123.63 31.8148 132.493 21.8067 137.722 17.8886C142.934 13.9829 147.379 13.3435 149.733 13.3435V133.343C170.808 133.343 192.2 127.018 209.681 113.919C227.178 100.808 243.63 78.1001 243.63 47.9435H123.63ZM149.733 13.3435C152.087 13.3435 156.531 13.9829 161.744 17.8886C166.972 21.8067 175.836 31.8148 175.836 47.9435H55.8359C55.8359 78.1001 72.2876 100.808 89.7846 113.919C107.265 127.018 128.658 133.343 149.733 133.343V13.3435ZM175.836 47.9435C175.836 64.0721 166.972 74.0802 161.744 77.9983C156.531 81.904 152.087 82.5435 149.733 82.5435V-37.4565C128.658 -37.4565 107.265 -31.1311 89.7846 -18.0324C72.2876 -4.92132 55.8359 17.7868 55.8359 47.9435H175.836ZM149.733 82.5435C147.379 82.5435 142.934 81.904 137.722 77.9983C132.493 74.0802 123.63 64.0721 123.63 47.9435H243.63C243.63 17.7868 227.178 -4.92132 209.681 -18.0324C192.2 -31.1311 170.808 -37.4565 149.733 -37.4565V82.5435Z" fill="url(#paint4_linear_309_8587)" mask="url(#path-7-inside-1_309_8587)"/>
<path d="M52.288 35.3671C51.7547 35.3671 51.3387 35.2177 51.04 34.9191C50.7627 34.6204 50.624 34.2044 50.624 33.6711V14.0551C50.624 13.5004 50.7627 13.0844 51.04 12.8071C51.3387 12.5084 51.7547 12.3591 52.288 12.3591C52.8213 12.3591 53.2267 12.5084 53.504 12.8071C53.8027 13.0844 53.952 13.5004 53.952 14.0551V22.3111H66.592V14.0551C66.592 13.5004 66.7307 13.0844 67.008 12.8071C67.3067 12.5084 67.7227 12.3591 68.256 12.3591C68.7893 12.3591 69.1947 12.5084 69.472 12.8071C69.7493 13.0844 69.888 13.5004 69.888 14.0551V33.6711C69.888 34.2044 69.7493 34.6204 69.472 34.9191C69.1947 35.2177 68.7893 35.3671 68.256 35.3671C67.7227 35.3671 67.3067 35.2177 67.008 34.9191C66.7307 34.6204 66.592 34.2044 66.592 33.6711V25.0951H53.952V33.6711C53.952 34.2044 53.8133 34.6204 53.536 34.9191C53.2587 35.2177 52.8427 35.3671 52.288 35.3671ZM81.5873 35.4311C80.0086 35.4311 78.6433 35.1004 77.4913 34.4391C76.3606 33.7777 75.4753 32.8391 74.8353 31.6231C74.1953 30.4071 73.8753 28.9777 73.8753 27.3351C73.8753 26.0764 74.0566 24.9564 74.4193 23.9751C74.7819 22.9937 75.2939 22.1511 75.9553 21.4471C76.6379 20.7217 77.4486 20.1777 78.3873 19.8151C79.3473 19.4311 80.4139 19.2391 81.5873 19.2391C83.1446 19.2391 84.4886 19.5697 85.6193 20.2311C86.7713 20.8924 87.6673 21.8311 88.3073 23.0471C88.9473 24.2417 89.2673 25.6711 89.2673 27.3351C89.2673 28.5724 89.0859 29.6924 88.7233 30.6951C88.3606 31.6977 87.8379 32.5511 87.1553 33.2551C86.4939 33.9591 85.6833 34.5031 84.7233 34.8871C83.7846 35.2497 82.7393 35.4311 81.5873 35.4311ZM81.5873 32.9351C82.4619 32.9351 83.2299 32.7217 83.8913 32.2951C84.5526 31.8684 85.0646 31.2391 85.4273 30.4071C85.8113 29.5751 86.0033 28.5511 86.0033 27.3351C86.0033 25.5004 85.5979 24.1137 84.7873 23.1751C83.9766 22.2364 82.9099 21.7671 81.5873 21.7671C80.6913 21.7671 79.9126 21.9804 79.2513 22.4071C78.5899 22.8124 78.0673 23.4311 77.6833 24.2631C77.3206 25.0951 77.1393 26.1191 77.1393 27.3351C77.1393 29.1484 77.5446 30.5351 78.3553 31.4951C79.1659 32.4551 80.2433 32.9351 81.5873 32.9351ZM99.3968 35.4311C98.1168 35.4311 97.0394 35.2071 96.1648 34.7591C95.2901 34.3111 94.6394 33.6497 94.2128 32.7751C93.7861 31.9004 93.5728 30.8337 93.5728 29.5751V22.0231H91.6528C91.2261 22.0231 90.8954 21.9164 90.6608 21.7031C90.4261 21.4684 90.3087 21.1591 90.3087 20.7751C90.3087 20.3697 90.4261 20.0604 90.6608 19.8471C90.8954 19.6337 91.2261 19.5271 91.6528 19.5271H93.5728V16.2311C93.5728 15.6977 93.7114 15.2924 93.9888 15.0151C94.2874 14.7377 94.6928 14.5991 95.2048 14.5991C95.7168 14.5991 96.1114 14.7377 96.3888 15.0151C96.6661 15.2924 96.8048 15.6977 96.8048 16.2311V19.5271H100.549C100.975 19.5271 101.306 19.6337 101.541 19.8471C101.775 20.0604 101.893 20.3697 101.893 20.7751C101.893 21.1591 101.775 21.4684 101.541 21.7031C101.306 21.9164 100.975 22.0231 100.549 22.0231H96.8048V29.3191C96.8048 30.4497 97.0394 31.3031 97.5088 31.8791C97.9994 32.4551 98.7888 32.7431 99.8767 32.7431C100.261 32.7431 100.591 32.7111 100.869 32.6471C101.167 32.5617 101.413 32.5084 101.605 32.4871C101.839 32.4871 102.031 32.5724 102.181 32.7431C102.33 32.8924 102.405 33.1911 102.405 33.6391C102.405 33.9591 102.341 34.2577 102.213 34.5351C102.106 34.8124 101.903 34.9937 101.605 35.0791C101.349 35.1644 100.997 35.2391 100.549 35.3031C100.122 35.3884 99.7381 35.4311 99.3968 35.4311Z" fill="white"/>
<path opacity="0.2" d="M88.0781 24.7429L122.242 -2.05713" stroke="white" stroke-width="1.4"/>
<path opacity="0.2" d="M110.498 18.5427L144.662 -8.25732" stroke="white" stroke-width="1.4"/>
<path opacity="0.2" d="M117.438 30.1423L151.602 3.34229" stroke="white" stroke-width="1.4"/>
</g>
<defs>
<linearGradient id="paint0_linear_309_8587" x1="75" y1="0.143066" x2="75" y2="48.1431" gradientUnits="userSpaceOnUse">
<stop stop-color="#4984EB"/>
<stop offset="1" stop-color="#0E4EBD"/>
</linearGradient>
<linearGradient id="paint1_linear_309_8587" x1="84.1122" y1="-20.7699" x2="0.162702" y2="34.6377" gradientUnits="userSpaceOnUse">
<stop stop-color="white"/>
<stop offset="1" stop-color="white" stop-opacity="0"/>
</linearGradient>
<linearGradient id="paint2_linear_309_8587" x1="-35.9287" y1="89.5784" x2="15.9965" y2="-17.5307" gradientUnits="userSpaceOnUse">
<stop stop-color="white"/>
<stop offset="0.833345" stop-color="white"/>
<stop offset="1" stop-color="white" stop-opacity="0"/>
</linearGradient>
<linearGradient id="paint3_linear_309_8587" x1="-44.5836" y1="67.67" x2="25.6803" y2="-5.14473" gradientUnits="userSpaceOnUse">
<stop stop-color="white"/>
<stop offset="0.775314" stop-color="white"/>
<stop offset="1" stop-color="white" stop-opacity="0"/>
</linearGradient>
<linearGradient id="paint4_linear_309_8587" x1="163.078" y1="-6.85654" x2="143.911" y2="67.7833" gradientUnits="userSpaceOnUse">
<stop stop-color="#DDF8AF"/>
<stop offset="1" stop-color="#DDF8AF" stop-opacity="0"/>
</linearGradient>
</defs>
</svg>
