<svg width="25" height="20" viewBox="0 0 25 20" fill="none" xmlns="http://www.w3.org/2000/svg">
<path fill-rule="evenodd" clip-rule="evenodd" d="M12.9761 17.5H2.17607C1.51367 17.5 0.976074 18.0588 0.976074 18.75C0.976074 19.4412 1.51367 20 2.17607 20H12.9761C13.6385 20 14.1761 19.4412 14.1761 18.75C14.1761 18.0588 13.6385 17.5 12.9761 17.5ZM23.7761 8.75H2.17607C1.51367 8.75 0.976074 9.30875 0.976074 10C0.976074 10.6912 1.51367 11.25 2.17607 11.25H23.7761C24.4385 11.25 24.9761 10.6912 24.9761 10C24.9761 9.30875 24.4385 8.75 23.7761 8.75ZM0.976074 1.25C0.976074 0.55875 1.51367 0 2.17607 0H17.7761C18.4385 0 18.9761 0.55875 18.9761 1.25C18.9761 1.94125 18.4385 2.5 17.7761 2.5H2.17607C1.51367 2.5 0.976074 1.94125 0.976074 1.25Z" fill="#F6F6F9"/>
</svg>
